<svg xmlns="http://www.w3.org/2000/svg" version="1.1" xmlns:xlink="http://www.w3.org/1999/xlink" xmlns:svgjs="http://svgjs.com/svgjs" width="100%" height="100%"><svg width="100%" height="100%" viewBox="0 0 1200 1200" version="1.1" xmlns="http://www.w3.org/2000/svg" xmlns:xlink="http://www.w3.org/1999/xlink" xml:space="preserve" xmlns:serif="http://www.serif.com/" style="fill-rule:evenodd;clip-rule:evenodd;stroke-linejoin:round;stroke-miterlimit:2;">
    <g>
        <path d="M552.82,551.81L723.03,551.81C743.655,522.974 759.257,490.724 770.917,458.287L646.347,458.287L552.82,551.81Z" style="fill:rgb(132,204,22);fill-rule:nonzero;"></path>
        <path d="M488.81,387.34C422.361,455.965 402.673,553.99 440.548,611.03L488.81,562.768L488.81,387.34Z" style="fill:rgb(132,204,22);fill-rule:nonzero;"></path>
        <path d="M782.74,420.79C795.416,375.001 801.338,331.763 804.002,300.64L683.892,420.75L782.744,420.75L782.74,420.79Z" style="fill:rgb(132,204,22);fill-rule:nonzero;"></path>
        <path d="M1050,93.75L150,93.75C118.988,93.75 93.75,118.988 93.75,150L93.75,806.25C93.75,837.262 118.988,862.5 150,862.5L239.699,862.5L239.699,1087.5C239.699,1094.96 244.125,1101.71 250.988,1104.71C253.351,1105.73 255.898,1106.25 258.449,1106.25C263.097,1106.25 267.711,1104.52 271.238,1101.19L527.138,862.498L1050,862.498C1081.01,862.498 1106.25,837.26 1106.25,806.248L1106.25,149.998C1106.25,118.986 1081.01,93.748 1050,93.748L1050,93.75ZM720.3,613.27C644.288,689.321 526.28,727.83 440.06,664.606L388.271,716.395C380.958,723.708 369.072,723.708 361.759,716.395C354.446,709.083 354.446,697.196 361.759,689.883L413.021,638.621C387.634,604.945 378.146,559.535 386.209,508.611C394.873,454.123 423.561,399.181 464.885,357.821C590.925,231.781 815.695,234.331 825.335,234.371C835.46,234.559 843.562,242.695 843.749,252.785C843.897,262.308 846.335,487.165 720.299,613.265L720.3,613.27Z" style="fill:rgb(132,204,22);fill-rule:nonzero;"></path>
        <path d="M619.84,307.2C587.402,318.864 555.152,334.462 526.278,355.087L526.278,525.297L619.84,431.735L619.84,307.2Z" style="fill:rgb(132,204,22);fill-rule:nonzero;"></path>
        <path d="M657.34,295.35L657.34,394.237L777.45,274.127C746.364,276.791 703.126,282.678 657.34,295.354L657.34,295.35Z" style="fill:rgb(132,204,22);fill-rule:nonzero;"></path>
        <path d="M467.06,637.57C524.099,675.406 622.16,655.758 690.79,589.308L515.33,589.308L467.06,637.57Z" style="fill:rgb(132,204,22);fill-rule:nonzero;"></path>
    </g>
</svg><style>@media (prefers-color-scheme: light) { :root { filter: none; } }
</style></svg>