<?xml version="1.0" standalone="no"?>
<!DOCTYPE svg PUBLIC "-//W3C//DTD SVG 20010904//EN"
 "http://www.w3.org/TR/2001/REC-SVG-20010904/DTD/svg10.dtd">
<svg version="1.0" xmlns="http://www.w3.org/2000/svg"
 width="700.000000pt" height="700.000000pt" viewBox="0 0 700.000000 700.000000"
 preserveAspectRatio="xMidYMid meet">
<metadata>
Created by potrace 1.14, written by Peter Selinger 2001-2017
</metadata>
<g transform="translate(0.000000,700.000000) scale(0.100000,-0.100000)"
fill="#000000" stroke="none">
<path d="M791 6439 c-31 -8 -69 -23 -86 -34 -53 -32 -114 -106 -136 -164 l-21
-56 -1 -1972 c0 -1876 1 -1974 18 -2020 32 -87 87 -148 175 -194 44 -24 51
-24 352 -27 l306 -3 0 -670 c0 -622 2 -672 18 -697 26 -41 45 -51 91 -52 43 0
63 12 139 85 17 17 89 84 160 150 70 66 160 150 199 186 38 37 84 78 100 93
17 15 79 73 139 129 60 56 123 116 141 132 17 17 83 78 146 136 63 59 132 124
154 144 22 20 87 81 145 135 58 54 136 126 174 161 l68 64 1572 5 1571 5 50
27 c90 48 151 120 176 209 9 34 12 498 12 2009 l-1 1965 -22 58 c-30 79 -108
157 -186 187 l-59 23 -2669 1 c-2382 1 -2675 -1 -2725 -15z m4068 -819 c46
-19 63 -61 62 -153 -1 -92 -9 -236 -16 -283 -2 -17 -7 -57 -10 -90 -3 -32 -8
-70 -10 -84 -3 -14 -7 -47 -11 -75 -5 -40 -32 -188 -49 -265 -90 -416 -274
-829 -484 -1089 -115 -143 -273 -291 -403 -377 -105 -69 -278 -156 -383 -192
-168 -57 -234 -67 -420 -66 -153 1 -179 3 -255 27 -109 33 -247 97 -296 137
-13 12 -36 -7 -172 -142 -86 -86 -167 -161 -179 -167 -43 -22 -83 -13 -120 26
-32 33 -35 41 -30 81 5 42 14 54 165 206 l161 161 -27 40 c-95 138 -147 333
-144 536 6 414 236 874 581 1159 24 19 48 40 55 47 20 18 196 136 250 167 178
103 434 206 674 272 107 29 92 26 252 58 122 24 143 28 245 41 28 4 61 8 74
10 12 2 60 7 105 11 44 3 82 7 83 8 10 9 281 5 302 -4z"/>
<path d="M4457 5394 c-1 -1 -29 -5 -62 -8 -33 -3 -87 -10 -120 -16 -33 -6 -76
-13 -95 -16 -63 -10 -213 -43 -280 -61 l-65 -18 -1 -283 c0 -155 2 -282 5
-282 3 0 161 155 351 345 338 338 343 344 306 342 -21 -1 -38 -3 -39 -3z"/>
<path d="M4340 4895 c-190 -190 -343 -346 -340 -346 19 -4 553 -3 560 1 9 5
61 211 73 285 30 184 37 226 42 265 11 99 15 140 12 140 -1 0 -157 -155 -347
-345z"/>
<path d="M3545 5183 c-121 -50 -322 -153 -397 -203 l-78 -51 0 -497 0 -497
273 273 272 272 0 359 c0 198 -2 361 -5 364 -3 3 -32 -7 -65 -20z"/>
<path d="M2774 4652 c-140 -175 -245 -381 -283 -552 -5 -25 -13 -58 -17 -75
-11 -52 -13 -277 -3 -335 17 -88 63 -207 96 -250 2 -2 67 59 143 135 l140 140
0 507 c0 280 -3 508 -7 508 -5 -1 -36 -36 -69 -78z"/>
<path d="M3498 4053 l-273 -273 496 0 496 0 51 78 c78 118 222 415 222 456 0
10 -82 13 -359 12 l-360 0 -273 -273z"/>
<path d="M3017 3561 c-13 -4 -287 -272 -287 -282 0 -11 132 -67 200 -86 104
-29 325 -24 455 9 186 48 327 115 490 233 89 65 156 123 144 126 -14 3 -991 3
-1002 0z"/>
</g>
</svg>
